<svg width="272" height="273" xmlns="http://www.w3.org/2000/svg"><path d="M1.087 118.674c.143-.893.275-1.797.363-2.425.176-1.235.33-2.27.418-2.634a154.271 154.271 0 0 1 3.729-13.194C8.93 90.347 13.274 80.615 18.52 71.522c10.636-18.428 25.2-34.454 42.106-46.313 15.07-10.581 32.89-17.823 51.412-21.47-7.238.826-14.442 2.204-21.537 4.22l-.77-2.71c18.71-5.313 38.113-6.47 57-4.024 12.649.628 25.034 2.976 36.484 7.208 19.888 7.352 37.553 19.928 51.677 36.306 9.35 9.534 17.325 20.401 23.561 32.392-.495-1.521-.968-3.053-1.507-4.574l2.651-.937a199.314 199.314 0 0 1 7.194 26.1c7.337 24.468 6.875 51.429-1.089 77.02-6.963 27.699-21.284 52.257-42.325 70.518a1.408 1.408 0 0 1-2.178-.43 657.295 657.295 0 0 1-8.712 5.302l-1.353.815a134.67 134.67 0 0 1-19.755 9.942c-7.623 3.086-15.498 5.467-23.561 7.175 16.015-2.6 31.591-7.285 47.673-12.124 3.608-1.09 7.248-2.171 10.911-3.251l.792 2.711c-3.663 1.08-7.292 2.172-10.89 3.252C191.866 266 168.58 273 143.049 273c-4.587 0-9.25-.22-14.014-.716-31.039-3.219-61.222-15.541-85.96-34.963.1.132.198.265.297.397a1.41 1.41 0 0 1-.132 1.84 1.391 1.391 0 0 1-1.837.122c-2.387-1.808-4.158-4.056-5.29-6.69-.77-.96-1.551-1.907-2.31-2.855-5.808-7.142-11.814-14.538-16.07-23.025-1.354-2.69-2.498-5.5-3.52-8.365l-2.134.804C3.729 177.44 0 152.917 0 120.048c0-.672.462-1.235 1.089-1.378l-.002.004zM264.05 98.342c-1.401-4.544-3.096-9-5.051-13.342.362.911.768 1.8 1.119 2.722A146.975 146.975 0 0 1 265 103c-.282-1.552-.621-3.105-.95-4.658zm-6.46-10.097c-5.903-15.599-14.312-29.658-24.657-41.63-22.8-23.139-53.757-38.254-86.295-42.453-29.383-1.44-60.264 6.75-84.109 23.447-2.572 1.803-5.079 3.738-7.53 5.727A143.462 143.462 0 0 1 113.13 7.35c37.013-7.343 76.159 4.914 107.414 33.614C243.058 61.642 258.57 88.396 265 116c-1.484-9.31-3.957-18.622-7.41-27.756h.002zM11.964 121.578C14.989 98.883 23.272 78.534 35.8 62c-8.153 10.46-14.586 22.52-19.048 35.96-8.185 24.711-8.762 51.727-2.634 76.021 2.885 9.538 6.15 18.496 10.079 26.795 3.537 6.743 7.706 13.025 12.485 18.671C42.167 225.927 48.328 231.76 55 237a162.066 162.066 0 0 1-5.747-5c-28.995-26.718-42.95-67.986-37.29-110.426v.004zM38 213c-7.956-11.776-13.509-24.079-17.607-34.25-.893-2.22-1.672-4.485-2.393-6.75 3.995 14.931 10.739 28.873 20 40.999V213zm-22-95c6.058-30.872 23.955-59.582 50.29-75.87 11.268-6.971 23.865-11.824 37.054-14.647 1.174-.342 2.315-.717 3.5-1.026 15-3.915 29.922-5.018 44.156-3.518-1.91-.872-3.742-1.886-5.443-3.155-23.877-2.691-48.751 1.544-70.446 12.706C43.498 48.78 22.124 79.829 16 118zm106.78 139.9c.219-.527.734-.868 1.294-.868 1.316 0 2.621-.077 3.926-.11a122.494 122.494 0 0 1-21.485-4.937C81.696 243.88 59.672 228.068 44 208c19.555 25.764 48.08 44.348 78.788 51a1.37 1.37 0 0 1-.01-1.1h.002zm-14.89-7.788A120.045 120.045 0 0 0 129 255c-.595-.223-1.157-.423-1.62-.601-1.586-.58-2.908-1.07-3.558-1.359-6.7-3.017-12.77-5.924-18.532-8.886a285.942 285.942 0 0 1-14.753-8.128C72.908 227.34 58.63 215.86 48.118 202.03c-9.31-10.835-17.54-24.286-21.375-40.364a59.323 59.323 0 0 0-1.035-1.715A52.882 52.882 0 0 1 24 157a106.095 106.095 0 0 0 4.561 17.337c12.428 34.732 42.828 63.77 79.329 75.774zM154.68 33.194c-1.89-.137-3.791-.171-5.681-.194 18.396 1.86 36 8.59 51 20-14.407-12.527-28.627-18.642-45.317-19.806h-.002zM180 34c-.896-.887-1.877-1.64-2.89-2.332A93.514 93.514 0 0 0 167 28a91.13 91.13 0 0 1 13 6zM31.663 139c-.695 4.888-1.219 9.764-1.663 14.608 2.596 17.282 9.35 32.81 19.905 46.115A126.968 126.968 0 0 0 57 207c-4.384-4.986-8.336-10.4-11.73-16.285-6.433-11.188-9.86-23.166-10.84-35.286-1.355-5.48-2.3-10.959-2.768-16.427V139zM34 109c-2.6 9.58-3.971 19.653-4 30 .609-5.059 1.333-10.164 2.242-15.28.28-4.967.888-9.877 1.758-14.72zm116.903 135.2a371.371 371.371 0 0 1 7.002-1.626c15.99-3.635 40.163-9.126 48.299-21.272 2.48-3.701 5.116-7.084 7.796-10.302-4.058 4.02-8.447 7.688-13.122 11.037-7.631 6.04-15.924 11.027-24.614 14.607-9.737 4.02-19.783 6.293-29.85 6.776-.066-.033-2.944-.088-6.826-.308-11.645.539-22.937-.713-33.588-3.558 14.313 6.051 29.706 8.38 44.903 4.646zm-7.901 3.451c4.503.388 9.005.476 13.398.144 11.339-.885 22.788-5.125 34.6-12.795-10.337 4.505-22.546 7.316-31.993 9.486a472.42 472.42 0 0 0-6.947 1.627c-3.016.742-6.044 1.229-9.06 1.538h.002zm-16.6-12.489c-.548 1.275-1.789 1.75-2.7 2.098-.241.094-.493.19-.702.284 2.415 1.149 10.932 2.013 17.485 2.456 1.953-.074 3.907-.158 5.894-.337 19.811-1.75 38.151-8.38 53.42-18.667A106.223 106.223 0 0 0 206 216c-1.13.57-2.261 1.149-3.48 1.644-8.77 3.563-18.955 7.347-29.677 10.171-14.916 5.776-30.964 7.821-46.8 5.545.11.105.198.22.264.316.263.495.307 1.022.099 1.486h-.003zm14.454-6.18a83.855 83.855 0 0 0 7.916-.216c5.882-.543 11.512-1.63 16.69-3.194C199.35 215.242 222.757 186.142 224 153c-.352 1.662-.704 3.302-1.121 4.931a93.836 93.836 0 0 1-1.155 4.845c-2.848 10.71-7.279 20.128-12.908 28.189-8.829 14.762-21.682 26.156-38.305 30.524-21.77 9.124-46.86 8.799-70.576-2.14C82.64 211.376 68.644 196.908 60 180.224c2.452 6.69 5.651 12.991 9.764 18.574 7.63 10.363 18.537 17.945 30.764 22.953 13.183 4.757 27.345 6.973 40.33 7.234l-.002-.002zm57.166-166.857a1.482 1.482 0 0 1-1.022.362c.256.45.511.932.767 1.382 12.87 9.419 22.927 22.96 26.728 42.963 1.834 9.66 2.3 19.639 1.556 29.486.589 4.791.867 9.638.744 14.518-.333 12.884-3.89 25.198-10.013 36.164 11.936-17.27 20.36-40.462 17.738-64.783-.645-2.555-1.334-5.12-2.023-7.709-.545-2.05-1.1-4.1-1.634-6.173-.989-3.816-2.145-7.873-3.545-12.018a90.27 90.27 0 0 0-6.046-10.976C215.06 75.713 207.08 67.182 198 60c.056.077.134.143.19.208.466.582.4 1.426-.168 1.92v-.003zm17.196 49.74C211.47 102.748 205.898 94.357 199 87c.41.56.807 1.131 1.194 1.724 5.672 8.753 9.663 18.286 12.162 28.894 4.875 9.313 8.126 19.537 5.318 32.486-3.881 17.869-14.86 34.66-29.673 46.896a78.578 78.578 0 0 0 2.642-1.757c25.594-18.011 36.395-54.65 24.577-83.377v-.002zM222 118a112.64 112.64 0 0 0-1.422-10.784C217.596 90.813 210.412 78.863 201 70c.538 1.033 1.098 2.043 1.637 3.076 6.267 7.797 10.995 16.892 14.194 27.132A93.85 93.85 0 0 1 222 117.999V118zm-82.428-56.797c-6.22.637-12.473 1.827-18.572 3.495 7.857-1.689 16.066-1.955 24.483-.744a76.123 76.123 0 0 1 12.583 2.932c1.363.234 2.725.5 4.077.786 1.923.404 3.89.85 5.857 1.328-8.989-6.097-18.736-8.796-28.427-7.797h-.001zM148 57.654a95.456 95.456 0 0 0-16.721-2.308c-2.093.386-4.186.808-6.279 1.347 7.633-.539 15.356-.199 23 .961zM87.783 180.808C93.333 186.45 99.921 191.258 107 195c-8.497-6.026-14.627-14.28-18.223-24.52-1.384-2.042-2.657-4.139-3.718-6.312a66.85 66.85 0 0 1-3.182-4.687c-7.37-11.963-9.223-25.86-5.539-39.481-2.378 5.63-4.097 11.404-4.901 17.134-2.144 15.256 3.65 30.765 16.347 43.673zm-10.476-6.566l.07.14c.105.13.21.247.316.376-.129-.176-.27-.34-.386-.516zm51.773 33.438c17.16 1.601 35.41-2.856 50.92-12.31a81.749 81.749 0 0 1-9.174 1.795c-7.306 4.425-15.622 7.41-24.796 8.362C126.453 207.55 103.953 199.134 88 184c.461.498.9 1.006 1.362 1.504a205.64 205.64 0 0 0 15.71 14.95c7.274 3.948 15.37 6.426 24.006 7.226h.002zm-3.08 5.45c7.48 1.347 15.218 1.289 23-.223-7.939.82-15.732.773-23 .223zM181.412 195a82.762 82.762 0 0 0 2.564-1.793c21.666-15.692 30.368-38.345 25.876-67.322-.39-2.53-.887-4.982-1.44-7.39-1.785-3.443-3.82-6.83-5.887-10.25A349.795 349.795 0 0 1 199.41 103a79.623 79.623 0 0 1 5.238 12.449c7.78 24.193-4.048 62.199-23.647 78.22a1.39 1.39 0 0 1 .411 1.33V195zm23.042-65.531c.24 1.177.384 2.354.528 3.531.144-6.048-.576-11.803-2.402-16.836A68.666 68.666 0 0 0 199 108c2.919 7.138 4.84 14.45 5.453 21.469zm-3.177-.469c.2 1.326.34 2.663.446 4-.012-.438 0-.888-.035-1.326-.024-.45-.06-.91-.094-1.359-.082-.438-.211-.877-.317-1.315zm-12.469-3.25c2.049 10.36.756 21.062-3.637 30.842-3.122 9.144-8.84 17.17-16.957 23.694-11.15 8.958-25.37 12.73-39.214 11.25 4.732 1.512 9.574 2.696 14.47 3.464a63.54 63.54 0 0 0 8.282-.778c14.69-2.39 27.593-11.042 36.334-24.385 9.125-13.914 12.137-30.668 8.26-45.952-1.687-6.677-4.207-12.84-7.416-18.398a61.183 61.183 0 0 0-3.068-3.487c.154.439.35.855.471 1.327 2.06 7.236 2.87 14.835 2.476 22.422zM81.161 136.77c.634-5.61 2.275-11.189 4.747-16.495.875-7.354 2.68-14.414 6.092-20.275-3.26 2.713-6.103 5.981-8.301 9.936-6.814 13.564-7.503 28.176-2.144 41.064-.798-4.62-.94-9.38-.394-14.229zm3.514-6.77a44.61 44.61 0 0 0-1.347 6.694c-.89 7.415.047 14.623 2.672 21.306a74.064 74.064 0 0 1-.88-8.125l-.046-.917c-.281-5.777-.586-12.318-.399-18.958zm45.202 70.865a1.395 1.395 0 0 1 1.117-.938c4.132-.6 8.123-1.397 12.006-2.346-.455-.065-.911-.12-1.367-.185-17.037.24-34.066-6.296-46.102-17.84-.184-.174-.347-.37-.531-.556 7.158 11.904 19.012 19.803 34.996 23a1.427 1.427 0 0 1-.119-1.135zM186 180c-7.392 6.11-16.565 11.157-27 15a92.555 92.555 0 0 0 10.196-.66c6.46-3.811 12.103-8.708 16.804-14.34zm-10.658 13.617l.164-.035c.023-.082.105-.117.152-.2-.105.095-.21.165-.316.235zM151.008 198c-5.09 1.812-10.427 3.316-16.008 4.375l.82.95c.139.16.245.357.309.566 2.865.197 5.698.123 8.436-.197 6.262-.764 12.088-2.724 17.435-5.632-3.642.234-7.317.234-10.992-.062zM119 191c-6.419-2.74-12.484-6.088-18-10 5.345 4.221 11.467 7.591 18 10zm-12.695-10.731c7.784 5.226 16.69 8.125 25.695 8.731-3.156-.476-6.212-1.439-9.137-2.77-10.082-2.304-19.021-8.028-25.53-16.51-2.079-2.705-3.849-5.637-5.333-8.72 2.639 8.082 7.488 14.703 14.305 19.269zm52.878-3.376c.606-.493 1.23-.938 1.817-1.477a15.09 15.09 0 0 1-4 2.168 14.59 14.59 0 0 0 2.184-.691zM157 180.719c1.37-.692 2.697-1.535 4-2.438a.607.607 0 0 1-.134.047c-1.27.844-2.551 1.664-3.866 2.39zm7.626-11.933c2.947-3.147 4.98-7.415 6.374-11.786-.583.71-1.21 1.282-1.862 1.911-2.501 4.497-5.757 8.765-9.686 11.695-2.718 2.025-5.574 1.465-8.452 4.394 5.483 0 10.074-2.403 13.627-6.214zM182.971 144a73.421 73.421 0 0 0 1.65-5.385c.47-3.18.492-6.327.126-9.398a64.023 64.023 0 0 0-2.91-10.522c-1.03-2.303-2.325-4.531-3.837-6.694 4.56 8.781 6.415 20.406 4.971 32v-.001zm-8.971 26a59.304 59.304 0 0 0 3.025-3.801c2.296-3.173 4.211-7.166 5.735-10.63.49-1.486.892-3.016 1.24-4.568-2.34 6.67-5.767 13.263-10 19zm1.838-10.855c.483-.751.9-1.535 1.35-2.287.953-2.428 1.787-5.009 2.4-7.786 3.718-16.933-.109-35.716-9.123-44.659C162.975 96.975 152.754 93 141.315 93c-1.458 0-2.95.065-4.452.196-8.532.751-16.823 3.615-23.863 8.047 2.621-.99 5.407-1.699 8.302-2.134 9.913-5.674 19.41-6.882 28.39-3.517 13.764 5.15 24.774 21.082 25.673 37.12.746 4.803.658 9.79-.384 14.364-.92 8.232-3.322 17.554-9.09 23.652-.089.087-.176.185-.264.272 3.827-3.343 7.282-7.329 10.21-11.859l.001.003zm-10.655-68.883A78.566 78.566 0 0 0 159 89c3.522 1.678 6.892 3.649 10 6-1.21-1.629-2.508-3.196-3.817-4.739zM172 89c-3.06-2.032-6.378-4.022-10-6a82.913 82.913 0 0 1 4.79 4.524c1.783.428 3.534.909 5.21 1.476zm-6.012 31.774c-7.192-10.432-19.882-17.5-33.36-18.774-1.868 0-3.748.134-5.628.403 2.689.715 5.65 1.968 8.886 3.98 1.509.94 3.126 2.147 4.777 3.534 2.23.86 4.393 1.956 6.416 3.343 3.388 2.315 6.339 5.144 8.962 8.263 7.684 3.78 11.925 16.795 14.253 23.963l.164.514c1.41-9.158.12-18.573-4.47-25.226zm.01-6.774c-4.204-7.177-10.306-13.34-17.795-16.246A25.57 25.57 0 0 0 138.895 96c-3.54 0-7.178.775-10.895 2.222.832.01 1.653-.023 2.507.034.422.022.832.114 1.243.148 13.058-.023 25.573 5.65 34.25 15.596h-.001zm-18.823 23.91c-.02.055-.053.11-.074.154a35.513 35.513 0 0 1-.31 3.834c.491-.099.981-.197 1.525-.362a1.342 1.342 0 0 1 1.545.636 1.438 1.438 0 0 1-.213 1.697c-1.247 1.282-2.654 2.344-4.071 3.308A27.244 27.244 0 0 1 144 151c3.207-.274 6.116-2.125 9.036-5.663 1.066-1.303 2.1-2.42 3.026-3.417.341-.373.64-.69.938-1.03-1.204-5.378-3.772-10.734-6.969-15.565-1.108-.602-2.216-1.095-3.292-1.325-.373.186-.757.394-1.14.635.83 3.943 1.46 7.93 1.523 11.874 0 .01.01.01.01.022.235.427.257.942.043 1.38zM140 136a34.58 34.58 0 0 1 4-.382c-.05-1.85-.223-3.734-.467-5.618a37.943 37.943 0 0 1-3.533 6zm4.133-7.943c-.07-.364-.164-.75-.246-1.114-.352.293-.692.61-1.02.938.434.047.867.105 1.266.176zm-3.136.943c-1.19 1.79-2.182 3.833-2.997 6 1.483-1.79 2.862-3.707 4-5.886-.324-.045-.668-.08-1.003-.114zm.81-4.555c-.164.094-.329.188-.493.293a10.978 10.978 0 0 0-2.12 1.758c.234.012.456.035.679.059a23.566 23.566 0 0 1 1.934-2.11zm-14.579 15.03l-.139.321c-.04.092-.05.184-.089.276.03.965.1 1.94.218 2.928 1.32-.735 2.551-1.573 3.722-2.457-.03-1.125-.02-2.24.06-3.33a77.534 77.534 0 0 0-1.201-1.045c-.248-.195-.357-.172-.397-.16-.794.252-1.836 2.675-2.174 3.467zm.495-4.963l-.305-.305c-.059.188-.082.398-.14.586.152-.094.304-.188.445-.281zm.277 11.623c.052.274.135.549.198.823.844 1.279 2 2.603 3.365 4.042.083-1.622.229-3.289.437-4.956a26.863 26.863 0 0 1-.333-2.044 33.997 33.997 0 0 1-3.667 2.135zM131.388 134c.372-1.413.91-2.755 1.612-3.991-.434 0-.868-.009-1.313-.009-.94.636-1.83 1.28-2.687 1.951l2.388 2.049zm.717 21.857a1.431 1.431 0 0 1-1.547-.304 67.37 67.37 0 0 0-1.558-1.477c1.746 3.672 4.077 6.953 6.84 9.159 2.64 2.108 6.541 3.879 11.16 1.912-5.9-2.097-11.116-6.638-14.01-12.147-.023.532-.023 1.054-.023 1.565.022.565-.332 1.075-.862 1.293zM135.686 143c-.261 1.15-.512 2.312-.686 3.462.283 1.15.654 2.3 1.133 3.45 2.321 5.643 7.355 10.43 13.13 12.47.665.238 1.406.434 2.19.618 5.415-4.276 7.943-9.984 7.497-16.94-.033-.434-.098-.868-.153-1.302-.784.836-1.623 1.715-2.506 2.756-3.999 4.72-8.303 6.891-13.065 6.61-.25.368-.49.748-.762 1.106-.294.39-.752.575-1.242.553a1.39 1.39 0 0 1-1.123-.76c-.272-.542-.446-1.095-.599-1.638-.49-.152-.97-.271-1.46-.477a1.38 1.38 0 0 1-.469-2.268 21.164 21.164 0 0 1 1.842-1.606c.305-1.465.915-2.898 1.634-4.265-.501-.174-1.013-.337-1.47-.554a1.393 1.393 0 0 1-1.7.283c-.513-.272-1.428-.793-2.19-1.498zM138 129.032l-.712-.032c-1.029 1.73-1.828 3.762-2.288 6 .821-2.119 1.818-4.13 3-5.967zM160.47 138c1.18-2.064.5-3.939-3.136-7.69-.107-.11-.227-.199-.334-.31 1.43 2.607 2.599 5.282 3.47 8zm-19.428 3c.339-.722.688-1.417 1.027-2.097.317-.653.635-1.278.931-1.903-2.423.194-4.667.68-6 1.25 1.291 1.278 2.571 2.236 4.042 2.75zm.306 9.787c.105-.187.199-.387.304-.574-.082.058-.164.105-.246.176-.011.129-.047.27-.058.398zm1.66-4.777c.304-.188.586-.387.879-.574.035-.13.07-.258.105-.399-.152-.012-.293-.035-.445-.047-.188.34-.363.692-.54 1.02zm12.898-21.555c-.375-.48-.761-.96-1.16-1.43a4.974 4.974 0 0 0-.586-.21 8.357 8.357 0 0 0-1.066-.27 22.54 22.54 0 0 1 2.812 1.91zm-4.697-4.666c.223-.023.457-.07.68-.082-.891-.867-1.817-1.7-2.778-2.496a57.306 57.306 0 0 1 2.098 2.578zm18.201 27.445a1.386 1.386 0 0 1-1.758-.65l-.268-.531c-1.351-2.68-2.713-5.394-4.15-8.053-.278 1.404-1.125 2.702-2.273 4.074.236 1.245.43 2.49.515 3.724.44 6.872-1.748 12.648-6.476 17.201 2.327.022 4.9-.468 7.527-1.883a17.37 17.37 0 0 0 3.227-2.308c2.005-3.692 3.442-7.83 4.246-12.064-.16.203-.343.383-.59.49zm-17.795 18.054c-5.586 3.804-11.55 3.583-16.926-.75-4.71-3.804-8.264-10.243-10.019-16.86a10.184 10.184 0 0 1-.533-.87c-2.71 1.025-5.62 1.852-8.74 2.48-.512.1-1.034-.077-1.367-.485a1.384 1.384 0 0 1-.222-1.422c2.455-6.109 6.198-11.633 11.173-16.518.078-.176.167-.352.245-.518.2-.408.6-.683 1.044-.76.022 0 .044-.012.067-.012.21-.187.422-.386.633-.573-9.63.76-19.437 3.606-21.814 10.651-.644 4.477.755 8.888 3.31 12.934.033.055.078.1.11.155 2.5 3.374 5.832 6.803 9.686 10.012a61.097 61.097 0 0 0 10.351 6.593c6.853 3.11 18.826 6.627 28.556-.573 1.766-1.312 3.376-2.867 4.831-4.598-3.254 1.312-6.808 1.687-10.385 1.114zm-27.67-25.42c-.012-.967-.023-1.947.055-2.868-2.418 3.129-4.425 6.458-6 10a49.107 49.107 0 0 0 5.534-1.842c-.355-1.63-.3-3.388.41-5.29zm6.537-13.744c3.575-2.762 7.634-5.283 12.142-7.55a1.43 1.43 0 0 1 1.217-.022c.384.176.67.528.779.935.077.33.153.672.241 1.002.527-.011 1.031-.044 1.602.033.186-.077.362-.099.537-.165-2.687-3.335-5.594-6.274-8.39-8.618-5.002-1.816-10.399-2.256-15.532-1.1-6.745 1.507-12.427 5.624-16.003 11.578-3.41 5.68-4.365 11.04-4.003 15.783 3.806-8.662 16.354-11.546 27.41-11.876zm-25.375-4.236c4.013-6.625 10.399-11.21 17.993-12.886 3.248-.728 6.596-.871 9.9-.518-4.18-2.282-8.104-3.484-11.674-3.484-1.02 0-2.007.11-2.96.287-4.091 2.877-8.27 6.537-12.528 10.98-1.386 2.932-2.317 6.26-2.838 9.733a35.177 35.177 0 0 1 2.106-4.112zm15.658 46.505c-4.478-2.997-8.9-6.955-12.29-11.461l-.296-.403c-.341-.47-.727-.905-1.046-1.375-.209-.28-.385-.548-.572-.816l-.165-.235c-.363-.503-.748-1.017-1.067-1.52-5.831-9.102-7.25-21.893-4.61-32.583-1.75 2.08-3.51 4.271-5.28 6.608-.331.973-.628 1.968-.892 2.986-3.19 12.22 8.263 24.576 16.624 33.587l2.289 2.482c9.825 10.779 18.923 16.839 27.538 18.337 3.774-.66 7.46-1.811 11.002-3.388-10.375 0-21.861-5.244-31.236-12.22h.001zm20.445 17.804c-3.025.516-6.106.446-9.21.375 1.54.293 3.092.223 4.622.223h.191c2.755 0 5.488-.035 8.187-.55-1.26-.012-2.519.152-3.79-.048zM133 185c-7.031-3.012-14.314-8.687-21.96-17.095l-2.275-2.463C104.162 160.46 98.67 154.515 95 148a63.502 63.502 0 0 0 2.89 8.05c5.086 11.631 13.105 21.304 21.916 26.924a40.6 40.6 0 0 0 7.899 1.735c1.758.201 3.526.28 5.295.291zm-42.264-51c-.395 2.3-.597 4.61-.736 6.92.938 9.389 4.157 18.517 9.413 25.913 3.25 4.587 7.195 8.313 11.587 11.167-6.534-6.252-11.832-14.406-15.254-22.56-3.092-7.396-4.765-14.667-5.01-21.44zM89 159c.401 2.555.954 5 1.615 7.348.77.902 1.561 1.782 2.385 2.652-1.713-3.065-3.057-6.402-4-10zm.491-31.184c.33.033.614.178.834.39 1.722-5.519 4.19-10.76 7.35-15.374 8.458-12.346 23.541-20.894 39.35-22.313 7.493-.67 14.59.313 20.975 2.726-.439-.245-.867-.491-1.316-.726-4.64-2.402-9.533-3.877-14.536-4.425-2.325-.056-4.399-.067-6.1-.089-.723-.011-1.458 0-2.204 0-6.429.57-12.934 2.603-19.275 6.09-11.474 6.301-20.744 16.48-26.064 28-.242 2.28-.406 4.581-.505 6.905.132-.737.79-1.251 1.492-1.184h-.001zM117 89c-6.199 1.102-12.344 2.988-17.836 5.953C94.411 99.561 91.595 105.89 90 113c5.589-8.963 13.479-16.702 22.814-21.894A53.19 53.19 0 0 1 117 89zm-20.698 4.03c3.353-3.149 7.566-5.572 12.849-6.979 6.43-1.708 13.213-2.58 20.007-2.58 5.592 0 11.184.615 16.61 1.788 4.765.212 10.048.636 15.232 1.507-.937-.871-1.83-1.787-2.801-2.613-6.96-5.896-14.515-9.29-22.401-10.15A71.12 71.12 0 0 0 119.33 75.8c-.927.302-1.864.625-2.802.994C106.471 80.724 96.853 88.408 89 98a43.563 43.563 0 0 1 7.301-4.97zM177 90c-5.806-5.734-12.564-10.15-20-13 7.764 4.227 14.358 8.502 20 13zm-7 2a83.66 83.66 0 0 1 7.2 10.229A46.847 46.847 0 0 1 186 116c-.354-4.076-1.03-8.107-2.114-12.028-1.427-5.941-6.943-9.64-13.886-11.972zm23 76c.511-.64 1.062-1.268 1.548-1.919A79.663 79.663 0 0 0 197 161a67.9 67.9 0 0 1-4 7zm-2 10c-3.17 4.772-6.848 9.165-11 13 4.044-3.4 7.754-7.838 11-13zm-28 30a89.572 89.572 0 0 0 7.442-2.14c3.31-1.726 6.5-3.698 9.558-5.86a88.371 88.371 0 0 1-17 8zM99 85c-7.577 4.693-14.066 10.88-18.894 18.378C75.652 110.296 72.628 117.99 71 126c4.927-15.67 15.364-30.775 28-41zm-11.46 1.822c2.917-1.967 5.833-4.258 8.913-6.679C99.566 77.69 102.734 75.226 106 73a68.93 68.93 0 0 0-13.949 9.24A75.62 75.62 0 0 0 86 88c.513-.389.994-.8 1.54-1.178zM106 77a75.795 75.795 0 0 1 13.558-4.09c4.266-1.187 8.51-1.811 12.667-1.811 1.379 0 2.746.09 4.103.218.554.01 1.118.04 1.672.05-3.05-1.11-6.144-1.98-9.162-2.367-3.57.267-7.12.703-10.648 1.287C114 71.891 109.951 74.307 106 77zm51.331-7.27C150.94 68.554 144.458 68 138 68c2.846 1.12 5.626 2.453 8.297 3.832 19.277 2.872 35.477 14.652 45.372 32.175 1.992 2.555 3.788 5.223 5.331 7.993-2.605-8.015-6.349-15.85-10.88-22.894-7.904-8.784-17.734-15.488-28.789-19.377zM176 78c-.693-1.091-1.411-2.074-2.13-3.084-.623-.31-1.238-.633-1.87-.916 1.377 1.239 2.701 2.6 4 4zm-1.295-6.818c.344.292.688.616 1.032.907 4.64 1.48 9.157 3.35 13.263 5.911a102.604 102.604 0 0 0-9.578-6.591A107.47 107.47 0 0 0 169 67a57.553 57.553 0 0 1 5.705 4.182zM180 76c3.035 3.313 5.86 6.992 8.456 10.925A75.577 75.577 0 0 1 198 100c-3.013-5.363-5.685-11.025-7.28-17.352-3.199-2.78-6.85-4.93-10.72-6.648zm25.742 31.558L206 108a90.509 90.509 0 0 0-8.29-17.565c-.527-.86-1.119-1.642-1.71-2.435 2.484 7.044 6.15 13.386 9.742 19.558zM214.605 151c.258-.896.539-1.802.75-2.709 1.594-6.83 1.242-12.787-.281-18.291.832 7.435.668 14.439-.47 21zM191.5 197.328c-6.425 4.6-13.322 7.935-20.405 10.329a79.845 79.845 0 0 1-9.989 4.366c-8.739 3.136-17.522 4.533-26.107 4.222 1.14.244 2.28.455 3.41.654 20.01 3.48 38.486-1.418 52.959-12.888a89.648 89.648 0 0 0 9.484-9.974c3.52-4.311 6.623-9.098 9.353-14.218A97.615 97.615 0 0 0 214 170c-5.175 10.827-12.807 20.391-22.5 27.328h.001zm-64.848 21.925c-.011.033-.033.066-.044.11a1.37 1.37 0 0 1-1.692.718l-2.63-.872c-5.829-1.92-12.28-4.039-17.53-7.846C95.174 207.236 85.885 202.524 77 198c6.997 7.68 15.314 14.102 24.657 18.516 17.683 8.343 36.172 10.417 53.343 6.732-9.573.143-19.047-1.402-28.348-3.995zm-49.547-24.524c7.506 3.764 15.307 7.692 23.327 11.271.142-.218.349-.359.567-.479-14.533-8.573-27.145-20.79-35-36.521a133.618 133.618 0 0 0 7.768 24.054l3.338 1.675zM82 189c-4.294-5.418-7.799-11.33-10.524-17.559-.445-.581-.901-1.151-1.346-1.733A226.653 226.653 0 0 1 64 161c4.05 10.803 10.302 20.158 18 28zm-13-28c-3.503-12.292-4.132-25.34-1.591-38A102.46 102.46 0 0 0 63 143.09c0 3.081.133 6.174.376 9.288.066.111.143.234.22.356l1.293 2.092c1.315 2.09 2.73 4.126 4.11 6.173L69 161zm-5-41c5.537-15.687 14.868-29.822 26.93-40.046A77.14 77.14 0 0 1 96 76c-1.465.568-2.907 1.19-4.35 1.824-8.31 5.375-15.556 11.918-21.114 19.532.11.087.233.163.31.284.267.404.3.906.1 1.332C67.84 105.657 65.532 112.714 64 120zm3-13c-4.388 8.855-6.61 18.81-5.854 29.747.011.088.023.165.023.253.492-10.363 2.451-20.45 5.831-30zm.938-10c2.898-2.644 6.28-7.57 10.062-11-.98.578-1.96 1.26-2.92 1.87-.42.268-.97.35-1.422.123-.01 0-.021.021-.021.021-.97 1.467-2.015 2.654-3.028 4.028C69.327 93.777 68.077 97 67 97h.938zM75 84a117.044 117.044 0 0 1 14.928-7.933c12.468-8.098 27.176-13.574 42.072-16.054a92.622 92.622 0 0 0-15.26 1.01C99.87 63.547 86.036 71.14 75.004 83.978L75 84zm43-28c-13.907 1.398-26.107 6.209-36 14 10.964-5.906 23.536-10.24 36-14zm7.21-2.813c2.174-.056 4.338-.011 6.502.078 19.16-3.366 37.933-.514 52.852 8.298C188.277 63.755 191.748 66.26 195 69c-6.998-6.632-15.413-12.044-25.168-16.193-4.284-1.476-8.612-2.718-12.908-3.803-19.719-3.41-39.909 2.438-57.497 8.947A50.787 50.787 0 0 0 95 59.83c8.997-4.104 19.148-6.386 30.21-6.643zm56.627 10.093c-11.203-6.54-24.67-9.666-38.837-9.242 12.846 2.322 25.148 7.132 36.083 13.907 5.14 2.556 10.081 5.503 14.744 8.863 1.843.257 4.186.982 4.186 3.873 0 .547-.31 1.05-.8 1.284-.077.033-.155.022-.233.044C204.42 89.353 210.615 97.76 215 107c-2.798-7.556-6.129-14.945-9.704-22.178-6.228-8.695-14.1-16.084-23.46-21.542h.001zM51.018 155.12c-1.782-9.083-1.898-18.23-.035-26.928.327-3.12.77-6.194 1.317-9.192-3.728 13.585-5.754 29.112-3.075 44.555 2.644 9.29 6.58 17.812 11.775 25.445-5.416-10.323-8.642-21.986-9.982-33.88zm-2.977-50.851c.925-3.24 1.94-6.293 2.987-9.247a1.425 1.425 0 0 1-.646-.022c-9.44 17.832-14.645 38.386-13.119 58.523 3.611 14.845 10.399 29.504 20.263 43.16A134.947 134.947 0 0 0 60 200c-16.93-29.383-21.343-63.141-11.959-95.732zM47 137c1.559-15.58 5.82-29.937 10-41-6.994 12.533-9.838 27.156-10 41zm11-47c-.038.012-.075.012-.113.012-.775.711-1.6 1.373-2.387 2.071-.5 1.285-1.013 2.57-1.5 3.917 1.213-2.058 2.562-4.054 4-6zm-2.71 32.488c-.665 2.046-1.209 4.235-1.63 6.335-.876 8.712-.91 17.855.078 26.81C55.978 167.299 60.924 178.852 68 189c-3.96-10.514-6.532-21.183-7.741-31.776a60.383 60.383 0 0 1-.51-1.68c-.5-.177-.877-.608-.921-1.161l-.1-.962c-.089-.884-.166-1.58-.055-2.123-.976-4.3-1.642-9.021-1.952-13.709-.943-14.074 2.64-26.268 9.271-37.589h-1.386c-3.516 8.49-6.632 14.229-9.316 22.487v.001zM84 72.001c-3.947 2.125-7.635 4.471-11.044 7.05-5.258 6.309-9.518 13.735-12.568 22.213-.886 2.468-1.66 5.069-2.388 7.736 6.738-15.97 15.349-28.31 26-37v.001zm-19.758 6.866c9.502-9.565 19.315-19.459 32.894-24.357 11.75-4.229 24.642-8.173 37.864-9.488a34.407 34.407 0 0 0-1.063-.022c-17.82 0-36.682 6.563-50.268 11.998-.477.186-.942.383-1.407.591a157.273 157.273 0 0 1-6.047 4.273c-4.784 4.032-9.292 8.634-13.445 13.685C60.721 78.692 58.794 82.154 57 86a401.893 401.893 0 0 0 7.243-7.133h-.001zm83.11-34.597c3.326.681 6.717 1.452 10.13 2.312 3.238.57 6.476 1.362 9.692 2.457 1.258.48 2.494.994 3.708 1.508C178.572 53.205 186.098 56.589 193 61c-.711-1.284-1.422-2.591-2.122-3.864-13.214-10.688-36.1-15.87-53.971-16.127-14.494-.212-28.922 3.395-41.907 10.32 15.708-5.674 35.147-10.6 52.352-7.06v.001zM218 76c-3.677-6.238-8.254-12.122-14.104-17.128C194.654 50.946 184.173 44.974 173 41c17.418 7.615 33.32 19.726 45 34.999l-.001.001zm11.368 19.442c3.602 8.054 5.896 16.48 6.948 25.07 1.585 6.21 2.96 12.333 3.635 18.488.754-24.774-7.015-49.69-22.95-69 5.674 8.075 9.541 16.951 12.367 25.443zm7.95 42.56c-1.2 18.639-8.133 37.42-20.68 54.327C208.504 203.287 198.741 212.24 188 219a318.18 318.18 0 0 0 12.943-5.15c20.89-8.788 28.02-30.1 34.317-48.905 3.07-9.193 3.247-18.07 2.058-26.945l-.001.002zM212 219a136.38 136.38 0 0 0 24-30c-3.63 5.32-7.776 10.163-12.044 15.116-4.026 4.665-8.15 9.496-11.956 14.883V219zm-91.624 21c-.123-.114-.28-.217-.37-.331-.437-.64-.527-1.393-.247-2.089.561-1.38 1.828-1.895 2.759-2.271.157-.069.325-.137.482-.206-5.203-2.967-31.128-10.01-44-13.103a123.343 123.343 0 0 0 12.122 9.234c9.082 4.326 18.905 7.294 29.253 8.766h.001zM92 222c-1.404-.736-2.752-1.528-4.09-2.308C77.634 214.66 68.317 207.846 61 199c3.382 5.967 7.228 11.791 11.637 17.34.465.44.929.88 1.404 1.32 3.04.67 10.068 2.307 17.959 4.34zm-37.183-21.983C49.281 192.597 44.687 184.881 41 177c1.585 4.386 3.526 8.695 5.95 12.883C53.334 200.94 61.477 210.37 71 218c-6.041-5.65-11.509-11.718-16.183-17.983zM34.36 138c2.09-23.376 11.97-46.162 25.966-63.712C61.511 72.427 62.73 70.631 64 69c-.13.055-.248.11-.377.164-5 2.212-9.524 5.552-13.425 9.865-7.919 13.533-12.832 28.38-15.967 43.522-.356 5.124-.291 10.281.13 15.449zm29.234-72.01a61.963 61.963 0 0 0 6.858-3.523c2.733-2.54 5.648-4.611 8.713-6.245a88.877 88.877 0 0 1 6.376-4.398c.246-.192.504-.384.75-.576C89.452 48.803 92.667 46.327 96 44c-3.28 1.313-6.537 2.733-9.752 4.377C75.404 53.927 65.952 60.94 58 69c1.8-1.142 3.654-2.178 5.594-3.01zM85.637 46.04C91.957 42.711 98.44 40.075 105 38c-7.497.987-14.95 2.411-20.976 6.55A107.821 107.821 0 0 0 70 56c4.86-3.645 10.058-7.01 15.637-9.96v.001zM102.002 44c10.99-4.185 22.727-6.31 34.495-6.15 9.785.137 21.027 1.659 31.503 4.618-9.247-3.445-18.833-5.665-28.344-6.447-.296 0-.592-.021-.877-.021-9.806 0-19.743 1.342-29.54 3.952-2.49 1.205-4.892 2.579-7.239 4.048h.002zm85.416-5.94c.022.045.044.078.066.121 13.93 8.08 26.396 19.535 36.517 33.85 21.126 29.893 27.426 66.519 16.83 97.97-3.289 9.766-8.039 18.821-13.973 26.999 7.064-8.331 13.286-17.013 16.375-29.093 10.375-40.538-1.04-83.662-29.807-112.548C205.41 47.313 196.13 40.834 186 36c.498.647.974 1.326 1.417 2.06h.001zm57.845 131.282c-.314 1.274-.716 2.45-1.096 3.658 8.733-22.242 10.393-45.889 3.82-67.318C243.364 90.624 234.956 76.39 224 64c22.37 29.063 30.55 68.243 21.263 105.345v-.003zm-32.808 52.7c-19.477 18.082-37.78 27.561-55.963 28.982-14.585 1.143-30.211-2.12-43.492-6.316a385.352 385.352 0 0 0 10.225 4.717c.62.278 1.882.733 3.387 1.277 5.632 2.053 8.41 3.186 9.694 4.162 2.722.145 5.434.167 8.123.1 29.89-2.841 58.506-18.049 79.754-42.747C239.963 193.858 249.857 172.19 253 150c-4.615 26.007-18.636 51.703-40.546 72.041zM26.793 153.813a68.747 68.747 0 0 1-.586-3.813 49.18 49.18 0 0 0 .563 4c0-.062.011-.124.023-.187zm-3.262-8.898a1.423 1.423 0 0 1 1.511-.32c.442.177.717.562.817 1.015-2.13-28.758 8.041-55.968 27.643-76.72 7.28-10.133 16.447-19.395 28.14-27.18 7.832-5.215 17.484-6.34 26.827-7.42 2.89-.33 5.615-.65 8.296-1.08 11.395-1.842 24.654-3.738 37.815-2.856 3.276.22 6.398.65 9.42 1.213-13.248-3.583-27.004-5.083-40.56-4.41-31.713 3.87-61.895 21.588-81.363 48.524C26.226 97.61 19.166 122.97 21.405 148c.42-1.025 1.103-2.062 2.13-3.087l-.004.002zM164 20c-12.973-3.583-26.556-4.761-41-3.525 13.834-.805 27.745.392 41 3.525zM39.993 74.953C47.806 64.047 57.353 54.66 68 47c-22.65 15.066-39.333 36.901-46.26 62.124-5.193 18.93-4.931 38.727.491 57.876-8.346-31.233-2.105-64.313 17.763-92.047zm160.225-37.642c12.75 7.717 23.124 16.678 33.19 31.11 12.035 17.251 19.45 34.812 22.013 52.172.088.638.143 1.277.22 1.904a105.14 105.14 0 0 1 1.376 13.244c1.33 31.77-13.048 64.785-37.756 89.259 41.287-35.315 52.344-96.37 23.96-148.265-16.81-30.747-44.973-53.281-75.335-60.296-25.204-5.823-51.454-4.106-74.886 4.051 41.124-12.704 75.412-7.31 107.217 16.822zm24.817 201.507c.316-.59 1.117-.862 1.717-.59 6.112-6.153 11.528-12.94 16.248-20.228-6.238 8.674-13.298 16.366-21 23 1.897-1.266 2.729-1.888 3.035-2.182zm-59.659 23.872c35.799-7.93 67.997-32.598 86.14-65.998 4.588-8.446 8.068-17.41 10.484-26.692-16.148 50.876-57.868 87.257-111 95 4.777-.517 9.576-1.254 14.375-2.31h.001zm-37.683-.773a1.335 1.335 0 0 1-.626.606c8.265.77 16.398.617 24.267-.53 58.57-8.484 102.93-53.155 113.008-113.791.066-.408.297-.75.627-.959.385-16.396-2.814-33.19-9.123-49.243 17.564 54.74-3.33 113.724-53.46 141.913a139.279 139.279 0 0 1-7.748 4.022c-13.617 8.033-28.632 12.638-44.337 13.773-7.639 1.212-15.42 1.962-23.301 2.116l.44.44c.44.441.538 1.113.252 1.653h.001zm-92.835-61.755C26.325 186.435 20.698 171.833 18 157c1.07 7.428 2.895 14.724 5.572 21.753 7.703 20.182 20.912 48.853 46.51 64.63C87.554 254.143 106.03 260.786 124 263c-35.88-7.218-69.071-30.53-89.142-62.836v-.002zm25.718 43.802C77.169 255.474 96.938 262.98 118 266c-23.96-4.153-45.913-13.41-64-27 2.106 1.697 4.268 3.363 6.575 4.964zM8.475 169.618c.883 3.16 1.7 6.409 2.517 9.68 2.252 8.996 4.582 18.301 8.667 26.406 4.13 8.204 10.058 15.472 15.788 22.497l.299.364c.43-.11.916 0 1.27.308A160.739 160.739 0 0 0 47.017 237c-10.92-10.23-19.001-21.969-25.36-35.272-4.461-8.435-7.884-17.597-10.335-27.155a357.715 357.715 0 0 1-4.902-17.686c-6.68-37.75 6.768-77.467 36.888-108.973C71.794 18.117 116.764 4.162 160 11.1c-15.49-3.678-31.334-4.14-46.803-1.08C64.352 19.69 23.82 54.687 9.954 99.197c-7.408 23.775-7.905 47.473-1.48 70.42v.002z" fill="#6F77EF"/></svg>