<svg width="1920" height="394" xmlns="http://www.w3.org/2000/svg"><path d="M119.582 160.2c-4.239-6.933-10.2-12.6-17.882-17-7.682-4.4-16.292-6.6-25.829-6.6-4.239 0-8.477.467-12.716 1.4-4.238.933-8.013 2.4-11.325 4.4-3.311 2-5.96 4.533-7.947 7.6-1.987 3.067-2.98 6.867-2.98 11.4 0 8 3.576 13.933 10.729 17.8 7.152 3.867 17.881 7.4 32.186 10.6 9.007 2.133 17.352 4.667 25.035 7.6 7.682 2.933 14.371 6.6 20.067 11 5.695 4.4 10.133 9.667 13.312 15.8 3.179 6.133 4.768 13.333 4.768 21.6 0 11.2-2.12 20.667-6.358 28.4-4.239 7.733-9.868 14.067-16.888 19-7.02 4.933-15.034 8.467-24.04 10.6-9.008 2.133-18.28 3.2-27.817 3.2-14.305 0-28.279-2.8-41.922-8.4C16.332 293 5.007 284.467-4 273l26.624-22.8c5.033 7.467 11.987 13.733 20.862 18.8 8.874 5.067 18.61 7.6 29.206 7.6 4.769 0 9.338-.467 13.71-1.4 4.37-.933 8.344-2.467 11.92-4.6 3.577-2.133 6.424-4.933 8.544-8.4 2.12-3.467 3.179-7.867 3.179-13.2 0-8.8-4.173-15.333-12.517-19.6-8.345-4.267-20.597-8.267-36.757-12a225.036 225.036 0 0 1-19.272-5.8c-6.49-2.267-12.385-5.4-17.683-9.4s-9.603-9-12.915-15c-3.311-6-4.967-13.4-4.967-22.2 0-10.133 2.053-18.867 6.16-26.2 4.106-7.333 9.47-13.333 16.093-18 6.623-4.667 14.173-8.133 22.65-10.4 8.477-2.267 17.22-3.4 26.226-3.4 13.51 0 26.558 2.667 39.14 8 12.584 5.333 22.32 13.067 29.208 23.2l-25.83 22zM287 143.117h-49.994v74.639s-36.9.55-36.9 0v-74.64H164v-30.408h36.106V59h36.9v53.708H287v30.409zM464 190c-.265-7.522-1.522-14.575-3.773-21.157-2.25-6.582-5.56-12.29-9.93-17.127-4.368-4.835-9.796-8.664-16.283-11.485-6.487-2.82-14.1-4.231-22.837-4.231-7.943 0-15.423 1.41-22.44 4.231-7.016 2.821-13.106 6.65-18.269 11.485-5.163 4.836-9.4 10.545-12.71 17.127-3.309 6.582-5.228 13.635-5.758 21.157h112zm36 13.31v6.33c0 2.11-.132 4.22-.395 6.329H313c.264 7.911 0 4.088 0-10.68 0-14.505 2.438-27.888 7.314-40.151 4.876-12.263 11.663-22.745 20.36-31.448 8.698-8.703 18.977-15.493 30.838-20.372 11.86-4.879 24.643-7.318 38.348-7.318 13.706 0 26.16 2.242 37.36 6.725 11.203 4.483 20.69 10.944 28.466 19.383 7.775 8.439 13.771 18.657 17.988 30.657 4.217 11.999 6.326 25.514 6.326 40.546zM590.376 394H553V110.168h36.58v29.417h1.193c6.097-10.071 15.043-18.353 26.84-24.846 11.795-6.493 25.513-9.739 41.152-9.739 14.05 0 26.84 2.518 38.37 7.553 11.531 5.035 21.471 12.058 29.821 21.069 8.35 9.01 14.778 19.545 19.285 31.603 4.506 12.058 6.759 24.978 6.759 38.758 0 13.781-2.253 26.767-6.76 38.958-4.506 12.19-10.868 22.791-19.085 31.802-8.217 9.01-18.158 16.1-29.821 21.267-11.663 5.168-24.785 7.752-39.364 7.752-13.519 0-26.242-2.915-38.17-8.745-11.93-5.83-21.34-14.046-28.231-24.647h-1.193V394zM717 205.303c0-8.659-1.342-17.055-4.025-25.19-2.684-8.133-6.709-15.35-12.076-21.647-5.367-6.297-12.008-11.282-19.924-14.956-7.916-3.673-17.107-5.51-27.572-5.51-9.66 0-18.45 1.837-26.365 5.51-7.916 3.674-14.692 8.66-20.327 14.956-5.636 6.298-9.996 13.514-13.082 21.648-3.086 8.134-4.629 16.661-4.629 25.583 0 8.921 1.543 17.449 4.629 25.583 3.086 8.134 7.446 15.284 13.082 21.45 5.635 6.167 12.41 11.086 20.327 14.76 7.916 3.673 16.704 5.51 26.365 5.51 10.465 0 19.656-1.902 27.572-5.707 7.916-3.805 14.557-8.856 19.924-15.153 5.367-6.297 9.392-13.513 12.076-21.647 2.683-8.134 4.025-16.53 4.025-25.19zm128.128-63.962c4.5-9.317 12.18-17.302 23.035-23.956 10.856-6.655 23.036-9.982 36.54-9.982 12.179 0 22.637 2.063 31.375 6.189 8.738 4.125 16.019 9.649 21.844 16.57 5.825 6.92 10.128 15.038 12.908 24.354 2.78 9.317 4.17 19.298 4.17 29.946V218h-37.333v-20.762c0-7.72-.596-15.039-1.788-21.96-1.191-6.92-3.375-13.042-6.553-18.366-3.177-5.324-7.48-9.582-12.908-12.776-5.427-3.195-12.51-4.792-21.248-4.792-14.827 0-27.007 5.657-36.539 16.97-9.532 11.312-14.298 26.417-14.298 45.316V218H807V0h37.333v141.34h.795zm208.964 189.453c8.233 9.275 18.525 16.696 30.876 22.261 12.35 5.565 25.033 8.348 38.048 8.348 12.483 0 22.975-1.789 31.474-5.367 8.5-3.577 15.339-8.48 20.518-14.708 5.18-6.228 8.898-13.582 11.155-22.063 2.258-8.48 3.387-17.623 3.387-27.429v-24.249h-.797c-6.906 10.601-16.335 18.684-28.287 24.25-11.952 5.565-24.701 8.347-38.247 8.347-14.343 0-27.423-2.517-39.243-7.553-11.82-5.035-21.846-11.925-30.08-20.67-8.233-8.746-14.608-19.016-19.123-30.809-4.515-11.793-6.773-24.448-6.773-37.964 0-13.515 2.258-26.236 6.773-38.162 4.515-11.926 10.89-22.327 19.123-31.206 8.234-8.878 18.194-15.9 29.88-21.068 11.688-5.168 24.702-7.752 39.045-7.752 13.546 0 26.494 2.915 38.844 8.746 12.351 5.83 22.112 14.708 29.283 26.634h.797v-30.212H1227v178.886c0 13.78-1.726 26.965-5.18 39.553-3.452 12.589-9.295 23.72-17.53 33.392-8.233 9.673-18.99 17.425-32.27 23.255-13.28 5.83-29.748 8.746-49.402 8.746-16.468 0-33.002-2.981-49.602-8.944-16.6-5.963-30.877-14.377-42.829-25.243l23.905-29.02zM1065 202.5c0 8.76 1.409 17.123 4.226 25.087 2.818 7.964 6.977 14.999 12.478 21.105 5.501 6.105 12.143 11.017 19.925 14.733 7.782 3.717 16.637 5.575 26.566 5.575 9.66 0 18.516-1.726 26.566-5.177 8.05-3.45 14.893-8.163 20.528-14.136 5.636-5.973 9.996-13.008 13.082-21.105 3.086-8.097 4.629-16.79 4.629-26.082 0-9.026-1.543-17.52-4.629-25.485-3.086-7.964-7.514-14.999-13.283-21.105-5.77-6.106-12.612-10.95-20.528-14.534-7.916-3.584-16.705-5.376-26.365-5.376-9.929 0-18.784 1.792-26.566 5.376-7.782 3.584-14.424 8.362-19.925 14.335-5.5 5.973-9.66 13.008-12.478 21.105-2.817 8.097-4.226 16.658-4.226 25.684zm272 73.302c0 6.88-2.552 12.966-7.657 18.26-5.104 5.292-11.552 7.938-19.343 7.938-7.522 0-13.903-2.58-19.142-7.74-5.239-5.16-7.858-11.181-7.858-18.062 0-7.145 2.552-13.297 7.657-18.458 5.104-5.16 11.552-7.74 19.343-7.74s14.239 2.514 19.343 7.542c5.105 5.028 7.657 11.114 7.657 18.26zm92.164-132.603c4.77-10.078 12.39-18.63 22.859-25.658 10.468-7.027 22.858-10.541 37.17-10.541 12.721 0 24.183 2.917 34.387 8.751 10.204 5.835 18.22 15.514 24.051 29.039 6.36-12.2 15.24-21.547 26.635-28.044 11.397-6.497 23.853-9.746 37.37-9.746 12.19 0 22.659 2.055 31.405 6.166 8.746 4.11 16.034 9.613 21.865 16.508 5.83 6.895 10.137 14.983 12.92 24.265 2.783 9.282 4.174 19.226 4.174 29.834V219h-37.369v-22.896c0-7.69-.662-14.983-1.988-21.878-1.325-6.895-3.577-12.994-6.758-18.298-3.18-5.304-7.42-9.547-12.721-12.73-5.3-3.182-12.059-4.773-20.275-4.773-8.48 0-15.769 1.79-21.864 5.37-6.096 3.58-11.065 8.221-14.908 13.923-3.843 5.701-6.626 12.132-8.349 19.292a93.201 93.201 0 0 0-2.584 21.879V219h-37.368v-30.454c0-7.425-.663-14.187-1.988-20.287s-3.578-11.337-6.758-15.712c-3.18-4.376-7.289-7.824-12.324-10.343-5.036-2.52-11.264-3.779-18.685-3.779-13.781 0-25.243 5.635-34.387 16.906-9.143 11.27-13.715 26.32-13.715 45.149V219h-37.369v-66.255c0-5.038-.132-11.535-.397-19.491-.265-7.956-.663-14.983-1.193-21.083h35.381c.53 4.774.928 10.144 1.193 16.11.265 5.967.397 10.94.397 14.918h1.193zM1884 190c-.265-7.522-1.522-14.575-3.773-21.157-2.25-6.582-5.56-12.29-9.93-17.127-4.368-4.835-9.796-8.664-16.283-11.485-6.487-2.82-14.1-4.231-22.837-4.231-7.943 0-15.423 1.41-22.44 4.231-7.016 2.821-13.106 6.65-18.269 11.485-5.163 4.836-9.4 10.545-12.71 17.127-3.309 6.582-5.228 13.635-5.758 21.157h112zm36 15.4v6.4c0 2.133-.132 4.267-.395 6.4h-148.652c.264 8 2.043 15.533 5.338 22.6 3.294 7.067 7.709 13.2 13.244 18.4 5.535 5.2 11.926 9.267 19.174 12.2 7.248 2.933 14.958 4.4 23.128 4.4 12.651 0 23.59-2.8 32.814-8.4 9.225-5.6 16.473-12.4 21.744-20.4l26.093 21.2c-10.015 13.333-21.81 23.133-35.383 29.4-13.574 6.267-28.663 9.4-45.268 9.4-14.232 0-27.41-2.4-39.535-7.2-12.124-4.8-22.535-11.533-31.232-20.2-8.698-8.667-15.55-19.133-20.558-31.4-5.008-12.267-7.512-25.867-7.512-40.8 0-14.667 2.438-28.2 7.314-40.6 4.876-12.4 11.663-23 20.36-31.8 8.698-8.8 18.977-15.667 30.838-20.6 11.86-4.933 24.643-7.4 38.348-7.4 13.706 0 26.16 2.267 37.36 6.8 11.203 4.533 20.69 11.067 28.466 19.6 7.775 8.533 13.771 18.867 17.988 31 4.217 12.133 6.326 25.8 6.326 41z" fill="#6F77EF"/></svg>